<mxfile host="app.diagrams.net" agent="Mozilla/5.0 (Windows NT 10.0; Win64; x64) AppleWebKit/537.36 (KHTML, like Gecko) Chrome/134.0.0.0 Safari/537.36 Edg/134.0.0.0" version="26.1.3">
  <diagram name="Página-1" id="xWFAOlKFsvc4t8wQJI2N">
    <mxGraphModel dx="1229" dy="658" grid="1" gridSize="10" guides="1" tooltips="1" connect="1" arrows="1" fold="1" page="1" pageScale="1" pageWidth="827" pageHeight="1169" math="0" shadow="0">
      <root>
        <mxCell id="0" />
        <mxCell id="1" parent="0" />
        <mxCell id="5QzRP1u2p6GEsiakewxr-8" value="" style="edgeStyle=orthogonalEdgeStyle;rounded=0;orthogonalLoop=1;jettySize=auto;html=1;" parent="1" source="5QzRP1u2p6GEsiakewxr-1" target="5QzRP1u2p6GEsiakewxr-3" edge="1">
          <mxGeometry relative="1" as="geometry" />
        </mxCell>
        <mxCell id="5QzRP1u2p6GEsiakewxr-1" value="" style="sketch=0;points=[[0,0,0],[0.25,0,0],[0.5,0,0],[0.75,0,0],[1,0,0],[0,1,0],[0.25,1,0],[0.5,1,0],[0.75,1,0],[1,1,0],[0,0.25,0],[0,0.5,0],[0,0.75,0],[1,0.25,0],[1,0.5,0],[1,0.75,0]];outlineConnect=0;fontColor=#232F3E;fillColor=#ED7100;strokeColor=#ffffff;dashed=0;verticalLabelPosition=bottom;verticalAlign=top;align=center;html=1;fontSize=12;fontStyle=0;aspect=fixed;shape=mxgraph.aws4.resourceIcon;resIcon=mxgraph.aws4.ec2;" parent="1" vertex="1">
          <mxGeometry x="94" y="120" width="78" height="78" as="geometry" />
        </mxCell>
        <mxCell id="5QzRP1u2p6GEsiakewxr-9" value="" style="edgeStyle=orthogonalEdgeStyle;rounded=0;orthogonalLoop=1;jettySize=auto;html=1;" parent="1" source="5QzRP1u2p6GEsiakewxr-3" target="5QzRP1u2p6GEsiakewxr-5" edge="1">
          <mxGeometry relative="1" as="geometry" />
        </mxCell>
        <mxCell id="5QzRP1u2p6GEsiakewxr-3" value="" style="outlineConnect=0;dashed=0;verticalLabelPosition=bottom;verticalAlign=top;align=center;html=1;shape=mxgraph.aws3.cloudwatch;fillColor=#759C3E;gradientColor=none;" parent="1" vertex="1">
          <mxGeometry x="274" y="113" width="82.5" height="93" as="geometry" />
        </mxCell>
        <mxCell id="5QzRP1u2p6GEsiakewxr-7" value="" style="edgeStyle=orthogonalEdgeStyle;rounded=0;orthogonalLoop=1;jettySize=auto;html=1;" parent="1" source="5QzRP1u2p6GEsiakewxr-4" target="5QzRP1u2p6GEsiakewxr-1" edge="1">
          <mxGeometry relative="1" as="geometry" />
        </mxCell>
        <mxCell id="5QzRP1u2p6GEsiakewxr-4" value="" style="shape=image;html=1;verticalAlign=top;verticalLabelPosition=bottom;labelBackgroundColor=#ffffff;imageAspect=0;aspect=fixed;image=https://cdn1.iconfinder.com/data/icons/operating-system-flat-1/30/ubuntu-128.png" parent="1" vertex="1">
          <mxGeometry x="69" y="250" width="128" height="128" as="geometry" />
        </mxCell>
        <mxCell id="5QzRP1u2p6GEsiakewxr-10" value="" style="edgeStyle=orthogonalEdgeStyle;rounded=0;orthogonalLoop=1;jettySize=auto;html=1;" parent="1" source="5QzRP1u2p6GEsiakewxr-5" target="5QzRP1u2p6GEsiakewxr-6" edge="1">
          <mxGeometry relative="1" as="geometry" />
        </mxCell>
        <mxCell id="5QzRP1u2p6GEsiakewxr-5" value="" style="sketch=0;points=[[0,0,0],[0.25,0,0],[0.5,0,0],[0.75,0,0],[1,0,0],[0,1,0],[0.25,1,0],[0.5,1,0],[0.75,1,0],[1,1,0],[0,0.25,0],[0,0.5,0],[0,0.75,0],[1,0.25,0],[1,0.5,0],[1,0.75,0]];outlineConnect=0;fontColor=#232F3E;fillColor=#E7157B;strokeColor=#ffffff;dashed=0;verticalLabelPosition=bottom;verticalAlign=top;align=center;html=1;fontSize=12;fontStyle=0;aspect=fixed;shape=mxgraph.aws4.resourceIcon;resIcon=mxgraph.aws4.sns;" parent="1" vertex="1">
          <mxGeometry x="464" y="120.5" width="78" height="78" as="geometry" />
        </mxCell>
        <mxCell id="5QzRP1u2p6GEsiakewxr-6" value="" style="sketch=0;outlineConnect=0;fontColor=#232F3E;gradientColor=none;fillColor=#E7157B;strokeColor=none;dashed=0;verticalLabelPosition=bottom;verticalAlign=top;align=center;html=1;fontSize=12;fontStyle=0;aspect=fixed;pointerEvents=1;shape=mxgraph.aws4.email_notification;" parent="1" vertex="1">
          <mxGeometry x="654" y="120.5" width="78" height="78" as="geometry" />
        </mxCell>
        <mxCell id="5QzRP1u2p6GEsiakewxr-11" value="EC2" style="text;html=1;align=center;verticalAlign=middle;resizable=0;points=[];autosize=1;strokeColor=none;fillColor=none;" parent="1" vertex="1">
          <mxGeometry x="108" y="80" width="50" height="30" as="geometry" />
        </mxCell>
        <mxCell id="5QzRP1u2p6GEsiakewxr-12" value="CloudWatch" style="text;html=1;align=center;verticalAlign=middle;resizable=0;points=[];autosize=1;strokeColor=none;fillColor=none;" parent="1" vertex="1">
          <mxGeometry x="266.5" y="80" width="90" height="30" as="geometry" />
        </mxCell>
        <mxCell id="5QzRP1u2p6GEsiakewxr-13" value="SNS - Simple Notification Service" style="text;html=1;align=center;verticalAlign=middle;resizable=0;points=[];autosize=1;strokeColor=none;fillColor=none;" parent="1" vertex="1">
          <mxGeometry x="403" y="206" width="200" height="30" as="geometry" />
        </mxCell>
        <mxCell id="5QzRP1u2p6GEsiakewxr-14" value="Notification for email" style="text;html=1;align=center;verticalAlign=middle;resizable=0;points=[];autosize=1;strokeColor=none;fillColor=none;" parent="1" vertex="1">
          <mxGeometry x="628" y="83" width="130" height="30" as="geometry" />
        </mxCell>
        <mxCell id="5QzRP1u2p6GEsiakewxr-15" value="2) Desenhar a arquitetura da solução Cloud Amazon S3 - Sistema Ubuntu, Sns Cloud Watch Amazon Managed Grafana Ebs" style="text;html=1;align=center;verticalAlign=middle;resizable=0;points=[];autosize=1;strokeColor=none;fillColor=none;" parent="1" vertex="1">
          <mxGeometry x="68" y="430" width="690" height="30" as="geometry" />
        </mxCell>
        <mxCell id="5QzRP1u2p6GEsiakewxr-16" value="1) Desenhar a arquitetura da solução Cloud Amazon EC2 - Sistema Ubuntu, Sns Cloud Watch" style="text;html=1;align=center;verticalAlign=middle;resizable=0;points=[];autosize=1;strokeColor=none;fillColor=none;" parent="1" vertex="1">
          <mxGeometry x="79" y="28" width="520" height="30" as="geometry" />
        </mxCell>
        <mxCell id="5QzRP1u2p6GEsiakewxr-17" value="3) Desenhar a arquitetura da solução Cloud Amazon EC2 - Sistema Ubuntu, Sns Cloud Watch Amazon RDS para MySQL" style="text;html=1;align=center;verticalAlign=middle;resizable=0;points=[];autosize=1;strokeColor=none;fillColor=none;" parent="1" vertex="1">
          <mxGeometry x="79" y="810" width="670" height="30" as="geometry" />
        </mxCell>
        <mxCell id="5QzRP1u2p6GEsiakewxr-18" value="4) Desenhar a arquitetura da solução Cloud AWS IoT Core - 10 mensagens dia Sns Cloud Watch Amazon Managed Grafana Ebs" style="text;html=1;align=center;verticalAlign=middle;resizable=0;points=[];autosize=1;strokeColor=none;fillColor=none;" parent="1" vertex="1">
          <mxGeometry x="55" y="1220" width="710" height="30" as="geometry" />
        </mxCell>
        <mxCell id="YT8TP7RHHVPidATrV-QL-1" value="Ubuntu" style="text;html=1;align=center;verticalAlign=middle;resizable=0;points=[];autosize=1;strokeColor=none;fillColor=none;" vertex="1" parent="1">
          <mxGeometry x="100" y="368" width="60" height="30" as="geometry" />
        </mxCell>
        <mxCell id="YT8TP7RHHVPidATrV-QL-6" value="" style="edgeStyle=orthogonalEdgeStyle;rounded=0;orthogonalLoop=1;jettySize=auto;html=1;" edge="1" parent="1" source="YT8TP7RHHVPidATrV-QL-2" target="YT8TP7RHHVPidATrV-QL-4">
          <mxGeometry relative="1" as="geometry" />
        </mxCell>
        <mxCell id="YT8TP7RHHVPidATrV-QL-2" value="" style="sketch=0;points=[[0,0,0],[0.25,0,0],[0.5,0,0],[0.75,0,0],[1,0,0],[0,1,0],[0.25,1,0],[0.5,1,0],[0.75,1,0],[1,1,0],[0,0.25,0],[0,0.5,0],[0,0.75,0],[1,0.25,0],[1,0.5,0],[1,0.75,0]];outlineConnect=0;fontColor=#232F3E;fillColor=#ED7100;strokeColor=#ffffff;dashed=0;verticalLabelPosition=bottom;verticalAlign=top;align=center;html=1;fontSize=12;fontStyle=0;aspect=fixed;shape=mxgraph.aws4.resourceIcon;resIcon=mxgraph.aws4.ec2;" vertex="1" parent="1">
          <mxGeometry x="80" y="507" width="78" height="78" as="geometry" />
        </mxCell>
        <mxCell id="YT8TP7RHHVPidATrV-QL-9" value="" style="edgeStyle=orthogonalEdgeStyle;rounded=0;orthogonalLoop=1;jettySize=auto;html=1;" edge="1" parent="1" source="YT8TP7RHHVPidATrV-QL-4" target="YT8TP7RHHVPidATrV-QL-7">
          <mxGeometry relative="1" as="geometry" />
        </mxCell>
        <mxCell id="YT8TP7RHHVPidATrV-QL-4" value="" style="sketch=0;points=[[0,0,0],[0.25,0,0],[0.5,0,0],[0.75,0,0],[1,0,0],[0,1,0],[0.25,1,0],[0.5,1,0],[0.75,1,0],[1,1,0],[0,0.25,0],[0,0.5,0],[0,0.75,0],[1,0.25,0],[1,0.5,0],[1,0.75,0]];outlineConnect=0;fontColor=#232F3E;fillColor=#E7157B;strokeColor=#ffffff;dashed=0;verticalLabelPosition=bottom;verticalAlign=top;align=center;html=1;fontSize=12;fontStyle=0;aspect=fixed;shape=mxgraph.aws4.resourceIcon;resIcon=mxgraph.aws4.sns;" vertex="1" parent="1">
          <mxGeometry x="240" y="507" width="78" height="78" as="geometry" />
        </mxCell>
        <mxCell id="YT8TP7RHHVPidATrV-QL-10" value="" style="edgeStyle=orthogonalEdgeStyle;rounded=0;orthogonalLoop=1;jettySize=auto;html=1;" edge="1" parent="1" source="YT8TP7RHHVPidATrV-QL-7" target="YT8TP7RHHVPidATrV-QL-8">
          <mxGeometry relative="1" as="geometry" />
        </mxCell>
        <mxCell id="YT8TP7RHHVPidATrV-QL-7" value="" style="outlineConnect=0;dashed=0;verticalLabelPosition=bottom;verticalAlign=top;align=center;html=1;shape=mxgraph.aws3.cloudwatch;fillColor=#759C3E;gradientColor=none;" vertex="1" parent="1">
          <mxGeometry x="390" y="499.5" width="82.5" height="93" as="geometry" />
        </mxCell>
        <mxCell id="YT8TP7RHHVPidATrV-QL-12" value="" style="edgeStyle=orthogonalEdgeStyle;rounded=0;orthogonalLoop=1;jettySize=auto;html=1;" edge="1" parent="1" source="YT8TP7RHHVPidATrV-QL-8" target="YT8TP7RHHVPidATrV-QL-11">
          <mxGeometry relative="1" as="geometry" />
        </mxCell>
        <mxCell id="YT8TP7RHHVPidATrV-QL-8" value="" style="sketch=0;points=[[0,0,0],[0.25,0,0],[0.5,0,0],[0.75,0,0],[1,0,0],[0,1,0],[0.25,1,0],[0.5,1,0],[0.75,1,0],[1,1,0],[0,0.25,0],[0,0.5,0],[0,0.75,0],[1,0.25,0],[1,0.5,0],[1,0.75,0]];points=[[0,0,0],[0.25,0,0],[0.5,0,0],[0.75,0,0],[1,0,0],[0,1,0],[0.25,1,0],[0.5,1,0],[0.75,1,0],[1,1,0],[0,0.25,0],[0,0.5,0],[0,0.75,0],[1,0.25,0],[1,0.5,0],[1,0.75,0]];outlineConnect=0;fontColor=#232F3E;fillColor=#E7157B;strokeColor=#ffffff;dashed=0;verticalLabelPosition=bottom;verticalAlign=top;align=center;html=1;fontSize=12;fontStyle=0;aspect=fixed;shape=mxgraph.aws4.resourceIcon;resIcon=mxgraph.aws4.managed_service_for_grafana;" vertex="1" parent="1">
          <mxGeometry x="542" y="507" width="78" height="78" as="geometry" />
        </mxCell>
        <mxCell id="YT8TP7RHHVPidATrV-QL-11" value="" style="outlineConnect=0;dashed=0;verticalLabelPosition=bottom;verticalAlign=top;align=center;html=1;shape=mxgraph.aws3.volume;fillColor=#E05243;gradientColor=none;" vertex="1" parent="1">
          <mxGeometry x="690" y="508.5" width="52.5" height="75" as="geometry" />
        </mxCell>
        <mxCell id="YT8TP7RHHVPidATrV-QL-14" value="" style="edgeStyle=orthogonalEdgeStyle;rounded=0;orthogonalLoop=1;jettySize=auto;html=1;" edge="1" parent="1" source="YT8TP7RHHVPidATrV-QL-13" target="YT8TP7RHHVPidATrV-QL-2">
          <mxGeometry relative="1" as="geometry" />
        </mxCell>
        <mxCell id="YT8TP7RHHVPidATrV-QL-13" value="" style="shape=image;html=1;verticalAlign=top;verticalLabelPosition=bottom;labelBackgroundColor=#ffffff;imageAspect=0;aspect=fixed;image=https://cdn1.iconfinder.com/data/icons/operating-system-flat-1/30/ubuntu-128.png" vertex="1" parent="1">
          <mxGeometry x="55" y="640" width="128" height="128" as="geometry" />
        </mxCell>
        <mxCell id="YT8TP7RHHVPidATrV-QL-15" value="Ubuntu" style="text;html=1;align=center;verticalAlign=middle;resizable=0;points=[];autosize=1;strokeColor=none;fillColor=none;" vertex="1" parent="1">
          <mxGeometry x="89" y="760" width="60" height="30" as="geometry" />
        </mxCell>
        <mxCell id="YT8TP7RHHVPidATrV-QL-16" value="EC2" style="text;html=1;align=center;verticalAlign=middle;resizable=0;points=[];autosize=1;strokeColor=none;fillColor=none;" vertex="1" parent="1">
          <mxGeometry x="94" y="477" width="50" height="30" as="geometry" />
        </mxCell>
        <mxCell id="YT8TP7RHHVPidATrV-QL-17" value="SNS - Simple Notification Service" style="text;html=1;align=center;verticalAlign=middle;resizable=0;points=[];autosize=1;strokeColor=none;fillColor=none;" vertex="1" parent="1">
          <mxGeometry x="172" y="600" width="200" height="30" as="geometry" />
        </mxCell>
        <mxCell id="YT8TP7RHHVPidATrV-QL-18" value="CloudWatch" style="text;html=1;align=center;verticalAlign=middle;resizable=0;points=[];autosize=1;strokeColor=none;fillColor=none;" vertex="1" parent="1">
          <mxGeometry x="386.25" y="460" width="90" height="30" as="geometry" />
        </mxCell>
        <mxCell id="YT8TP7RHHVPidATrV-QL-19" value="Amazon Managed Grafana" style="text;html=1;align=center;verticalAlign=middle;resizable=0;points=[];autosize=1;strokeColor=none;fillColor=none;" vertex="1" parent="1">
          <mxGeometry x="496" y="600" width="170" height="30" as="geometry" />
        </mxCell>
        <mxCell id="YT8TP7RHHVPidATrV-QL-20" value="Ebs" style="text;html=1;align=center;verticalAlign=middle;resizable=0;points=[];autosize=1;strokeColor=none;fillColor=none;" vertex="1" parent="1">
          <mxGeometry x="696.25" y="469.5" width="40" height="30" as="geometry" />
        </mxCell>
        <mxCell id="YT8TP7RHHVPidATrV-QL-21" value="" style="edgeStyle=orthogonalEdgeStyle;rounded=0;orthogonalLoop=1;jettySize=auto;html=1;" edge="1" parent="1" source="YT8TP7RHHVPidATrV-QL-22" target="YT8TP7RHHVPidATrV-QL-24">
          <mxGeometry relative="1" as="geometry" />
        </mxCell>
        <mxCell id="YT8TP7RHHVPidATrV-QL-22" value="" style="sketch=0;points=[[0,0,0],[0.25,0,0],[0.5,0,0],[0.75,0,0],[1,0,0],[0,1,0],[0.25,1,0],[0.5,1,0],[0.75,1,0],[1,1,0],[0,0.25,0],[0,0.5,0],[0,0.75,0],[1,0.25,0],[1,0.5,0],[1,0.75,0]];outlineConnect=0;fontColor=#232F3E;fillColor=#ED7100;strokeColor=#ffffff;dashed=0;verticalLabelPosition=bottom;verticalAlign=top;align=center;html=1;fontSize=12;fontStyle=0;aspect=fixed;shape=mxgraph.aws4.resourceIcon;resIcon=mxgraph.aws4.ec2;" vertex="1" parent="1">
          <mxGeometry x="80" y="897" width="78" height="78" as="geometry" />
        </mxCell>
        <mxCell id="YT8TP7RHHVPidATrV-QL-23" value="" style="edgeStyle=orthogonalEdgeStyle;rounded=0;orthogonalLoop=1;jettySize=auto;html=1;" edge="1" parent="1" source="YT8TP7RHHVPidATrV-QL-24" target="YT8TP7RHHVPidATrV-QL-26">
          <mxGeometry relative="1" as="geometry" />
        </mxCell>
        <mxCell id="YT8TP7RHHVPidATrV-QL-24" value="" style="sketch=0;points=[[0,0,0],[0.25,0,0],[0.5,0,0],[0.75,0,0],[1,0,0],[0,1,0],[0.25,1,0],[0.5,1,0],[0.75,1,0],[1,1,0],[0,0.25,0],[0,0.5,0],[0,0.75,0],[1,0.25,0],[1,0.5,0],[1,0.75,0]];outlineConnect=0;fontColor=#232F3E;fillColor=#E7157B;strokeColor=#ffffff;dashed=0;verticalLabelPosition=bottom;verticalAlign=top;align=center;html=1;fontSize=12;fontStyle=0;aspect=fixed;shape=mxgraph.aws4.resourceIcon;resIcon=mxgraph.aws4.sns;" vertex="1" parent="1">
          <mxGeometry x="240" y="897" width="78" height="78" as="geometry" />
        </mxCell>
        <mxCell id="YT8TP7RHHVPidATrV-QL-25" value="" style="edgeStyle=orthogonalEdgeStyle;rounded=0;orthogonalLoop=1;jettySize=auto;html=1;" edge="1" parent="1" source="YT8TP7RHHVPidATrV-QL-26">
          <mxGeometry relative="1" as="geometry">
            <mxPoint x="542" y="936" as="targetPoint" />
          </mxGeometry>
        </mxCell>
        <mxCell id="YT8TP7RHHVPidATrV-QL-26" value="" style="outlineConnect=0;dashed=0;verticalLabelPosition=bottom;verticalAlign=top;align=center;html=1;shape=mxgraph.aws3.cloudwatch;fillColor=#759C3E;gradientColor=none;" vertex="1" parent="1">
          <mxGeometry x="390" y="889.5" width="82.5" height="93" as="geometry" />
        </mxCell>
        <mxCell id="YT8TP7RHHVPidATrV-QL-30" value="" style="edgeStyle=orthogonalEdgeStyle;rounded=0;orthogonalLoop=1;jettySize=auto;html=1;" edge="1" parent="1" source="YT8TP7RHHVPidATrV-QL-31" target="YT8TP7RHHVPidATrV-QL-22">
          <mxGeometry relative="1" as="geometry" />
        </mxCell>
        <mxCell id="YT8TP7RHHVPidATrV-QL-31" value="" style="shape=image;html=1;verticalAlign=top;verticalLabelPosition=bottom;labelBackgroundColor=#ffffff;imageAspect=0;aspect=fixed;image=https://cdn1.iconfinder.com/data/icons/operating-system-flat-1/30/ubuntu-128.png" vertex="1" parent="1">
          <mxGeometry x="55" y="1030" width="128" height="128" as="geometry" />
        </mxCell>
        <mxCell id="YT8TP7RHHVPidATrV-QL-32" value="EC2" style="text;html=1;align=center;verticalAlign=middle;resizable=0;points=[];autosize=1;strokeColor=none;fillColor=none;" vertex="1" parent="1">
          <mxGeometry x="94" y="867" width="50" height="30" as="geometry" />
        </mxCell>
        <mxCell id="YT8TP7RHHVPidATrV-QL-33" value="SNS - Simple Notification Service" style="text;html=1;align=center;verticalAlign=middle;resizable=0;points=[];autosize=1;strokeColor=none;fillColor=none;" vertex="1" parent="1">
          <mxGeometry x="172" y="990" width="200" height="30" as="geometry" />
        </mxCell>
        <mxCell id="YT8TP7RHHVPidATrV-QL-34" value="CloudWatch" style="text;html=1;align=center;verticalAlign=middle;resizable=0;points=[];autosize=1;strokeColor=none;fillColor=none;" vertex="1" parent="1">
          <mxGeometry x="386.25" y="850" width="90" height="30" as="geometry" />
        </mxCell>
        <mxCell id="YT8TP7RHHVPidATrV-QL-37" value="Ubuntu" style="text;html=1;align=center;verticalAlign=middle;resizable=0;points=[];autosize=1;strokeColor=none;fillColor=none;" vertex="1" parent="1">
          <mxGeometry x="89" y="1158" width="60" height="30" as="geometry" />
        </mxCell>
        <mxCell id="YT8TP7RHHVPidATrV-QL-38" value="Amazon RDS" style="sketch=0;outlineConnect=0;fontColor=#232F3E;gradientColor=none;strokeColor=#ffffff;fillColor=#232F3E;dashed=0;verticalLabelPosition=middle;verticalAlign=bottom;align=center;html=1;whiteSpace=wrap;fontSize=10;fontStyle=1;spacing=3;shape=mxgraph.aws4.productIcon;prIcon=mxgraph.aws4.rds;" vertex="1" parent="1">
          <mxGeometry x="542" y="897" width="80" height="100" as="geometry" />
        </mxCell>
        <mxCell id="YT8TP7RHHVPidATrV-QL-39" value="Amazon RDS para MySQL" style="text;html=1;align=center;verticalAlign=middle;resizable=0;points=[];autosize=1;strokeColor=none;fillColor=none;" vertex="1" parent="1">
          <mxGeometry x="496" y="1000" width="170" height="30" as="geometry" />
        </mxCell>
        <mxCell id="YT8TP7RHHVPidATrV-QL-44" value="" style="edgeStyle=orthogonalEdgeStyle;rounded=0;orthogonalLoop=1;jettySize=auto;html=1;" edge="1" parent="1" source="YT8TP7RHHVPidATrV-QL-40" target="YT8TP7RHHVPidATrV-QL-41">
          <mxGeometry relative="1" as="geometry" />
        </mxCell>
        <mxCell id="YT8TP7RHHVPidATrV-QL-40" value="Amazon RDS" style="sketch=0;outlineConnect=0;fontColor=#232F3E;gradientColor=none;strokeColor=#ffffff;fillColor=#232F3E;dashed=0;verticalLabelPosition=middle;verticalAlign=bottom;align=center;html=1;whiteSpace=wrap;fontSize=10;fontStyle=1;spacing=3;shape=mxgraph.aws4.productIcon;prIcon=mxgraph.aws4.rds;" vertex="1" parent="1">
          <mxGeometry x="79" y="1360" width="80" height="100" as="geometry" />
        </mxCell>
        <mxCell id="YT8TP7RHHVPidATrV-QL-45" value="" style="edgeStyle=orthogonalEdgeStyle;rounded=0;orthogonalLoop=1;jettySize=auto;html=1;" edge="1" parent="1" source="YT8TP7RHHVPidATrV-QL-41" target="YT8TP7RHHVPidATrV-QL-42">
          <mxGeometry relative="1" as="geometry" />
        </mxCell>
        <mxCell id="YT8TP7RHHVPidATrV-QL-41" value="" style="sketch=0;points=[[0,0,0],[0.25,0,0],[0.5,0,0],[0.75,0,0],[1,0,0],[0,1,0],[0.25,1,0],[0.5,1,0],[0.75,1,0],[1,1,0],[0,0.25,0],[0,0.5,0],[0,0.75,0],[1,0.25,0],[1,0.5,0],[1,0.75,0]];outlineConnect=0;fontColor=#232F3E;fillColor=#E7157B;strokeColor=#ffffff;dashed=0;verticalLabelPosition=bottom;verticalAlign=top;align=center;html=1;fontSize=12;fontStyle=0;aspect=fixed;shape=mxgraph.aws4.resourceIcon;resIcon=mxgraph.aws4.sns;" vertex="1" parent="1">
          <mxGeometry x="250" y="1371" width="78" height="78" as="geometry" />
        </mxCell>
        <mxCell id="YT8TP7RHHVPidATrV-QL-46" value="" style="edgeStyle=orthogonalEdgeStyle;rounded=0;orthogonalLoop=1;jettySize=auto;html=1;" edge="1" parent="1" source="YT8TP7RHHVPidATrV-QL-42" target="YT8TP7RHHVPidATrV-QL-43">
          <mxGeometry relative="1" as="geometry" />
        </mxCell>
        <mxCell id="YT8TP7RHHVPidATrV-QL-42" value="" style="outlineConnect=0;dashed=0;verticalLabelPosition=bottom;verticalAlign=top;align=center;html=1;shape=mxgraph.aws3.cloudwatch;fillColor=#759C3E;gradientColor=none;" vertex="1" parent="1">
          <mxGeometry x="414" y="1363.5" width="82.5" height="93" as="geometry" />
        </mxCell>
        <mxCell id="YT8TP7RHHVPidATrV-QL-43" value="" style="sketch=0;points=[[0,0,0],[0.25,0,0],[0.5,0,0],[0.75,0,0],[1,0,0],[0,1,0],[0.25,1,0],[0.5,1,0],[0.75,1,0],[1,1,0],[0,0.25,0],[0,0.5,0],[0,0.75,0],[1,0.25,0],[1,0.5,0],[1,0.75,0]];points=[[0,0,0],[0.25,0,0],[0.5,0,0],[0.75,0,0],[1,0,0],[0,1,0],[0.25,1,0],[0.5,1,0],[0.75,1,0],[1,1,0],[0,0.25,0],[0,0.5,0],[0,0.75,0],[1,0.25,0],[1,0.5,0],[1,0.75,0]];outlineConnect=0;fontColor=#232F3E;fillColor=#E7157B;strokeColor=#ffffff;dashed=0;verticalLabelPosition=bottom;verticalAlign=top;align=center;html=1;fontSize=12;fontStyle=0;aspect=fixed;shape=mxgraph.aws4.resourceIcon;resIcon=mxgraph.aws4.managed_service_for_grafana;" vertex="1" parent="1">
          <mxGeometry x="576" y="1371" width="78" height="78" as="geometry" />
        </mxCell>
        <mxCell id="YT8TP7RHHVPidATrV-QL-47" value="CloudWatch" style="text;html=1;align=center;verticalAlign=middle;resizable=0;points=[];autosize=1;strokeColor=none;fillColor=none;" vertex="1" parent="1">
          <mxGeometry x="410.25" y="1330" width="90" height="30" as="geometry" />
        </mxCell>
        <mxCell id="YT8TP7RHHVPidATrV-QL-48" value="Amazon RDS para MySQL" style="text;html=1;align=center;verticalAlign=middle;resizable=0;points=[];autosize=1;strokeColor=none;fillColor=none;" vertex="1" parent="1">
          <mxGeometry x="34" y="1320" width="170" height="30" as="geometry" />
        </mxCell>
        <mxCell id="YT8TP7RHHVPidATrV-QL-49" value="SNS - Simple Notification Service" style="text;html=1;align=center;verticalAlign=middle;resizable=0;points=[];autosize=1;strokeColor=none;fillColor=none;" vertex="1" parent="1">
          <mxGeometry x="189" y="1470" width="200" height="30" as="geometry" />
        </mxCell>
        <mxCell id="YT8TP7RHHVPidATrV-QL-50" value="Amazon Managed Grafana" style="text;html=1;align=center;verticalAlign=middle;resizable=0;points=[];autosize=1;strokeColor=none;fillColor=none;" vertex="1" parent="1">
          <mxGeometry x="530" y="1470" width="170" height="30" as="geometry" />
        </mxCell>
      </root>
    </mxGraphModel>
  </diagram>
</mxfile>
